# xmcd
#
# Track frame offsets:
#	150
#	15331
#	37402
#	52677
#	70036
#	88455
#	116047
#	141110
#	157842
#	175170
#	189063
#	206826
#
# Disc length: 2997 seconds
#
# Revision: 1
# Processed by: cddbd v1.5.2PL0 Copyright (c) Steve Scherf et al.
# Submitted via: audiograbber 1.83.01
#
DISCID=9c0bb30c
DTITLE=Route Corazon - Conjuto Sol Y Sombra
DYEAR=2006
DGENRE=
TTITLE0=Soulmates
TTITLE1=Wild Night
TTITLE2=Ojitos Traidores
TTITLE3=Ay Te Dejo
TTITLE4=You Never Can Tell
TTITLE5=Run Away
TTITLE6=Congo Square
TTITLE7=El Canuero
TTITLE8=Siempre Quiro Estar Contigo
TTITLE9=I Got To Let You Know
TTITLE10=It Ain't Over Till It's Over
TTITLE11=After Dark
EXTD=www.routecorazon.com
EXTT0=
EXTT1=
EXTT2=
EXTT3=
EXTT4=
EXTT5=
EXTT6=
EXTT7=
EXTT8=
EXTT9=
EXTT10=
EXTT11=
PLAYORDER=
